# xmcd
#
# Track frame offsets:
#	150
#	14984
#	35834
#	66852
#	86369
#	103576
#	125149
#	148039
#	164632
#	186832
#
# Disc length: 2729 seconds
#
# Revision: 2
# Processed by: cddbd v1.4PL0 Copyright (c) Steve Scherf et al.
# Submitted via: EasyCDDAExtractor 5.1.0
#
DISCID=980aa70a
DTITLE=Cathouse Blues Band - It Seemed Like A Good Idea At The Time
DYEAR=2003
DGENRE=Blues
TTITLE0=Cathouse Boogie
TTITLE1=Dust My Broom
TTITLE2=She's 19 Years Old
TTITLE3=Something Evil
TTITLE4=All Come Together
TTITLE5=Caroline, Would You Mind
TTITLE6=The Blues Keep Me Alive
TTITLE7=Cat Fud
TTITLE8=Catfish Blues
TTITLE9=The
EXTD=
EXTT0=
EXTT1=
EXTT2=
EXTT3=
EXTT4=
EXTT5=
EXTT6=
EXTT7=
EXTT8=
EXTT9=
PLAYORDER=
